PathFileType  4	(X/Y/Z) C:\Users\antoi\Documents\MyRepositories\mobilecap\ResultsAnalysis
DataRate	CameraRate	NumFrames	NumMarkers	Units	OrigDataRate	OrigDataStartFrame	OrigNumFrames
100.0	100.0	6	51	mm	100.0	56	149
Frame#	Time	r_knee			r_shank_antsup			r_ankle			r_calc			r_5meta			r_toe			L_knee			L_shank_antsup			L_ankle			L_calc			L_5meta			L_toe			r_sh2			r_sh3			r_sh4			L_sh2			L_sh3			r_thigh1			r_thigh2			r_thigh3			r_thigh4			r_thigh5			L_thigh1			L_thigh2			L_thigh3			L_thigh4			r.ASIS			r.PSIS			L.ASIS			L.PSIS			C7			R_Shoulder			L_Shoulder			R_Sternum			L_Sternum			R_humerus			R_elbow_med			R_elbow_lat			R_forearm			R_wrist_radius			R_wrist_ulna			L_humerus			L_elbow_med			L_elbow_lat			L_forearm			L_wrist_radius			L_wrist_ulna			R_HJC			L_HJC			R_HJC_reg			L_HJC_reg			
		X1	Y1	Z1	X2	Y2	Z2	X3	Y3	Z3	X4	Y4	Z4	X5	Y5	Z5	X6	Y6	Z6	X7	Y7	Z7	X8	Y8	Z8	X9	Y9	Z9	X10	Y10	Z10	X11	Y11	Z11	X12	Y12	Z12	X13	Y13	Z13	X14	Y14	Z14	X15	Y15	Z15	X16	Y16	Z16	X17	Y17	Z17	X18	Y18	Z18	X19	Y19	Z19	X20	Y20	Z20	X21	Y21	Z21	X22	Y22	Z22	X23	Y23	Z23	X24	Y24	Z24	X25	Y25	Z25	X26	Y26	Z26	X27	Y27	Z27	X28	Y28	Z28	X29	Y29	Z29	X30	Y30	Z30	X31	Y31	Z31	X32	Y32	Z32	X33	Y33	Z33	X34	Y34	Z34	X35	Y35	Z35	X36	Y36	Z36	X37	Y37	Z37	X38	Y38	Z38	X39	Y39	Z39	X40	Y40	Z40	X41	Y41	Z41	X42	Y42	Z42	X43	Y43	Z43	X44	Y44	Z44	X45	Y45	Z45	X46	Y46	Z46	X47	Y47	Z47	X48	Y48	Z48	X49	Y49	Z49	X50	Y50	Z50	X51	Y51	Z51	

56	0.55000000	336.57128	481.48353	-79.86225	350.99187	411.18716	-80.24689	211.44671	103.05888	-119.54439	154.73050	85.30861	-165.11070	312.06551	39.48839	-99.80923	358.70893	54.90489	-152.20052	641.59379	464.18473	-309.86572	703.01969	410.98728	-292.78223	787.78619	111.29774	-290.78397	752.83747	50.19820	-246.39118	904.57721	110.99280	-314.02319	936.89681	154.95994	-260.57507	303.92254	309.18627	-79.62876	281.82689	442.86145	-64.83127	226.06929	340.43001	-73.19394	628.88206	390.66189	-341.65049	677.17211	277.65793	-345.13314	455.21952	702.94797	-16.81969	425.56128	596.04773	-40.16698	357.73612	592.30097	-47.74686	346.08053	731.39464	-35.18879	320.58326	626.09413	-76.29233	593.91633	733.86588	-361.85133	639.08316	605.82296	-330.43233	491.27373	691.86972	-380.34042	530.86517	569.79320	-331.93315	551.54327	898.09188	-68.65438	355.27765	944.93828	-178.47651	582.15137	901.80083	-288.04573	370.60357	940.50181	-259.10192	461.02753	1377.10799	-165.95744	499.88134	1338.17942	-19.05188	520.29115	1348.79550	-301.78929	583.27282	1308.60396	-133.56264	586.64780	1308.42441	-173.41768	527.15922	1228.92500	40.76436	467.13808	1013.21259	46.12848	502.64225	1031.42564	98.33916	582.87312	979.89725	106.61712	663.40732	859.75660	101.67809	637.22179	847.16768	128.97095	527.30071	1252.83964	-379.90820	458.86544	1036.89842	-393.44125	489.99513	1061.98329	-445.95805	554.80765	977.56470	-466.56398	599.79711	856.62531	-470.66997	569.38437	851.94895	-498.04475	462.90142	817.76804	-91.74527	497.46517	820.90445	-296.33180	475.53945	843.14782	-110.61245	502.80506	835.25532	-254.05034	
57	0.56000000	344.49034	480.97280	-79.37213	357.89520	410.49773	-79.81601	212.78682	104.67876	-119.27828	155.86911	87.63674	-164.93357	312.25466	39.47470	-99.65672	359.12909	54.61432	-152.07480	655.66293	463.43663	-308.66665	716.08787	408.45401	-291.63267	794.00812	107.32466	-289.87948	757.88243	47.10358	-245.82256	910.60756	104.97140	-312.85981	943.89434	148.11699	-259.08327	309.02773	309.33435	-79.24142	289.20340	443.21715	-64.28712	231.72432	341.79700	-72.71241	641.57731	389.74094	-340.59272	687.22636	275.72765	-344.10974	464.79815	701.70368	-16.73755	434.44856	595.01568	-39.91948	366.54099	591.61559	-47.35204	355.98430	730.71758	-35.01675	329.76989	625.51496	-76.06775	606.84685	733.26753	-361.27940	652.99227	605.60591	-329.69298	504.40260	690.22561	-380.42387	545.12940	568.24106	-331.62480	562.77162	896.36631	-68.85029	366.63964	943.06015	-178.35417	593.58998	900.27316	-288.20253	381.83626	938.33878	-258.95001	472.19305	1375.49518	-169.42702	510.50270	1337.84207	-22.04208	531.69265	1346.05548	-304.86730	594.32433	1307.34613	-136.11398	598.00457	1306.93913	-175.95776	536.51858	1228.71930	38.75925	474.67374	1013.15065	44.71173	509.60231	1031.49897	97.11318	589.64045	979.75138	105.86210	670.03312	859.57856	101.33455	643.63671	846.99544	128.55710	539.44752	1249.49542	-382.16607	472.19489	1033.03159	-394.61803	503.41407	1058.08282	-447.07659	568.57505	973.78549	-466.81892	614.12873	853.06985	-470.01942	583.67311	848.04794	-497.53418	474.47093	815.90050	-91.80456	508.91617	819.17966	-296.40671	486.91901	841.86407	-110.46813	513.96597	833.46073	-253.91314	
58	0.57000000	352.95809	480.37920	-78.85716	365.31193	409.70046	-79.36480	214.30933	106.49973	-118.93892	157.18376	90.30717	-164.71063	312.51212	39.43387	-99.49295	359.58699	54.25355	-151.97403	669.56081	462.48041	-307.43612	728.92068	405.66397	-290.28265	799.35891	103.17101	-288.94380	761.59871	44.48346	-245.37187	915.72628	98.18755	-311.57224	950.11806	140.29517	-257.43593	314.57178	309.45389	-78.84218	297.13569	443.53409	-63.73867	237.85728	343.22170	-72.16289	654.18326	388.81841	-339.54148	696.94629	273.71769	-343.07090	474.67248	700.45622	-16.63784	443.74544	593.94297	-39.60579	375.79233	590.85993	-46.92534	366.11880	730.02759	-34.88990	339.27839	624.90844	-75.75516	619.66666	732.35129	-361.12523	666.74302	605.09888	-329.24927	517.39756	688.45431	-380.45678	559.11669	566.61400	-331.09807	574.30821	894.63230	-69.05491	378.22391	941.27020	-178.22204	605.23061	898.66402	-288.42024	393.32448	936.25257	-258.77968	483.50020	1373.91417	-173.04076	521.35861	1337.60492	-25.18043	543.24342	1343.27649	-308.07670	605.55590	1306.09983	-138.81864	609.49244	1305.45522	-178.66248	546.06479	1228.61705	36.59826	482.17847	1013.31231	43.12182	516.59908	1031.74833	95.73680	596.36848	979.65665	104.98421	676.39585	859.28594	100.92380	649.79430	846.77515	128.08351	551.68835	1246.10426	-384.51732	485.53599	1029.18541	-395.77268	516.84544	1054.14606	-448.19582	582.36779	969.95446	-467.06660	628.48549	849.47212	-469.36190	598.00129	844.09349	-496.96550	486.25935	814.07754	-91.84918	520.51606	817.43048	-296.48032	498.49270	840.56606	-110.38440	525.38480	831.62930	-253.84620	
59	0.58000000	361.97932	479.75760	-78.32326	373.23162	408.83366	-78.87075	216.06544	108.57505	-118.52408	158.72299	93.39562	-164.43831	312.86388	39.38380	-99.32352	360.06796	53.81610	-151.89059	682.99603	461.26491	-306.24224	741.38479	402.75425	-288.76736	804.27877	99.10461	-287.91151	764.47421	42.64765	-244.93613	920.36073	91.01333	-310.08680	955.89264	131.85840	-255.57173	320.53043	309.58314	-78.42011	305.60179	443.90808	-63.22522	244.46558	344.77074	-71.58211	666.59764	387.84511	-338.51036	706.48270	271.68609	-341.98061	484.91171	699.22649	-16.50853	453.50118	592.85543	-39.22045	385.52224	590.07494	-46.48036	376.53882	729.36793	-34.82201	349.17944	624.29717	-75.40478	632.25873	731.06277	-361.43592	680.08647	604.19385	-329.14857	530.11642	686.61122	-380.37392	572.54337	564.97354	-330.38050	586.16732	892.92386	-69.22443	390.07404	939.59850	-178.15264	617.13149	896.97388	-288.68232	405.11229	934.29174	-258.67018	494.94853	1372.39711	-176.81325	532.43871	1337.50183	-28.47094	554.96723	1340.46858	-311.41953	616.97085	1304.86819	-141.67133	621.10812	1303.98554	-181.53387	555.79599	1228.63438	34.27182	489.61304	1013.78235	41.32541	523.67006	1032.21527	94.20331	603.10220	979.64280	103.97896	682.51776	858.88601	100.44978	655.73383	846.53837	127.55299	564.03957	1242.67178	-386.95384	498.90847	1025.37526	-396.89464	530.28969	1050.18406	-449.31849	596.19687	966.07869	-467.30914	642.85480	845.82451	-468.68540	612.38118	840.08863	-496.33087	498.25737	812.34169	-91.88904	532.32721	815.66829	-296.55107	510.29455	839.23971	-110.33164	537.09868	829.77913	-253.84389	
60	0.59000000	371.55738	479.15816	-77.75748	381.64421	407.93773	-78.27959	218.11349	110.93434	-118.00816	160.54198	96.96314	-164.08516	313.33012	39.33679	-99.14477	360.56417	53.29253	-151.80058	695.75376	459.82064	-305.16438	753.42431	399.88888	-287.16042	809.08864	95.34076	-286.77738	766.92936	41.70282	-244.46906	924.81176	83.77603	-308.36498	961.42611	123.13414	-253.44762	326.88614	309.76873	-77.93272	314.58130	444.41764	-62.74578	251.54475	346.50132	-70.97802	678.74497	386.82726	-337.51252	715.94343	269.71380	-340.82692	495.59271	698.03726	-16.34660	463.75572	591.78341	-38.75541	395.75247	589.29880	-46.02137	387.32079	728.76512	-34.81850	359.54956	623.69570	-75.06285	644.53656	729.41633	-362.20591	692.82933	602.85492	-329.42013	542.45113	684.78857	-380.12742	585.19726	563.42257	-329.51356	598.34298	891.28091	-69.33119	402.20906	938.06576	-178.19931	629.33227	895.24402	-288.97984	417.21112	932.51130	-258.68556	506.53909	1370.97662	-180.75168	543.73224	1337.57100	-31.91216	566.86651	1337.64272	-314.89668	628.56640	1303.66758	-144.66542	632.85687	1302.55968	-184.56732	565.70904	1228.79666	31.78041	496.97313	1014.61912	39.31272	530.83968	1032.93553	92.50575	609.86507	979.73900	102.84442	688.41339	858.39256	99.91445	661.47696	846.31751	126.96941	576.50686	1239.20304	-389.46533	512.32783	1021.59892	-397.98085	543.74445	1046.20168	-450.44389	610.06395	962.16518	-467.55404	657.21465	842.11740	-467.98300	626.81105	836.03557	-495.62893	510.45425	810.72957	-91.94709	544.39687	813.93544	-296.63237	522.35669	837.87059	-110.29361	549.12702	827.95694	-253.91378	
61	0.60000000	381.70330	478.61525	-77.12765	390.56280	407.04433	-77.52420	220.51510	113.58686	-117.34769	162.70284	101.05092	-163.59805	313.92236	39.29639	-98.94824	361.08437	52.66885	-151.67501	707.75246	458.27170	-304.28093	765.06460	397.22729	-285.56385	813.92846	92.03245	-285.59873	769.24955	41.56184	-243.97141	929.19273	76.74400	-306.44401	966.77028	114.41065	-251.09437	333.65338	310.05546	-77.32013	324.09238	445.09735	-62.25238	259.11193	348.44810	-70.32047	690.60276	385.83772	-336.57161	725.37431	267.90610	-339.63851	506.79185	696.91053	-16.16215	474.53615	590.75700	-38.20302	406.49896	588.56196	-45.54294	398.55055	728.22849	-34.87807	370.45662	623.11503	-74.76049	656.45577	727.50953	-363.37800	704.86622	601.14375	-330.06933	554.33777	683.11367	-379.69585	596.97520	562.09001	-328.53586	610.81319	889.75045	-69.36585	414.61741	936.69239	-178.38460	641.83188	893.55486	-289.30637	429.59601	930.97644	-258.86122	518.27310	1369.68622	-184.85433	555.23099	1337.85560	-35.49670	578.92024	1334.81378	-318.50668	640.33401	1302.53550	-147.79196	644.74323	1301.22122	-187.75269	575.80034	1229.14308	29.13539	504.28959	1015.85436	37.10024	538.11878	1033.94187	90.63551	616.65595	979.97689	101.57797	694.08684	857.83180	99.31684	667.02187	846.14740	126.33595	589.08324	1235.70885	-392.04136	525.80158	1017.84737	-399.03227	557.21184	1042.20161	-451.56573	623.96285	958.22499	-467.80964	671.53485	838.34525	-467.25315	641.27569	831.94181	-494.86254	522.83429	809.27710	-92.05025	556.73934	812.30517	-296.74601	534.69809	836.45494	-110.26953	561.46331	826.23987	-254.06977	
